<svg xmlns="http://www.w3.org/2000/svg" >
  <defs>
    <symbol id="brand" viewBox="0 0 100 100">
      <path  fill="#d4c775" d="m 5.359406,49.69993 c 1.074224,-4.83401 0.484383,-7.93047 3.312188,-10.02609 2.01438,-1.49281 5.201288,0.77584 7.519567,-0.17904 2.810464,-1.15761 3.648735,-5.64637 6.624378,-6.2663 2.578142,-0.53712 4.797027,2.63542 7.430047,2.68555 3.632543,0.0691 6.760025,-3.56867 10.384161,-3.31218 2.94208,0.20822 5.026488,3.62204 7.967159,3.8493 3.265688,0.25237 6.15455,-3.31069 9.399455,-2.8646 3.895169,0.53549 6.046239,5.78623 9.936568,6.35582 2.794267,0.40911 5.343051,-2.67051 8.146198,-2.32748 3.416586,0.4181 5.557596,4.57563 8.951856,5.14732 2.25695,0.38014 4.482,-1.62571 6.74508,-1.28398 1.34382,0.20292 3.60154,1.91107 3.60154,1.91107 C 75.24907,50.367067 56.658697,45.132438 40.187402,44.81246 23.716108,44.492482 16.208787,46.763998 5.359406,49.69993 Z"/>
      <path  fill="currentColor" d="m 25.501098,66.52943 c 0.268557,-7.78812 -5.729193,-13.96491 -14.322982,-9.1309 -8.593788,4.834 -10.115604,2.59604 -10.921272,0.71615 -0.805668,-1.8799 -0.05508,-5.79328 7.237195,-10.53776 5.813026,-3.78206 16.259456,-6.06336 24.62035,-5.86847 9.318111,0.21719 22.250632,2.12251 29.373199,3.426 13.956222,2.5541 26.763755,0.18368 35.038445,-2.14692 -4.29121,2.91234 -12.88351,8.49839 -30.766569,10.81433 -12.852863,1.66451 -9.745097,9.40558 -10.027948,13.55475 l -5.286861,0.212 C 49.318781,63.00792 48.954896,60.08463 40.277849,59.29665 31.600802,58.50868 31.640161,62.46313 31.319812,66.977 Z"/>
    </symbol>
  </defs>
</svg>
