<svg xmlns="http://www.w3.org/2000/svg" fill="none" viewBox="0 0 128 128">
    <path
        d="m 47.168,106.88 v -2.048 l 14.848,-1.536 h 3.84 l 14.848,1.536 v 2.048 z m 11.776,0 q 0.256,-5.12 0.384,-11.904003 0.128,-6.912 0.128,-14.336 0,-7.424 0,-14.208 v -5.632 q 0,-6.656 0,-13.824 0,-7.296 -0.128,-13.952 -0.128,-6.784 -0.384,-11.904 h 10.112 q -0.256,5.12 -0.384,11.904 -0.128,6.656 -0.128,13.952 0,7.168 0,13.824 v 5.632 q 0,6.784 0,14.208 0,7.424 0.128,14.336 Q 68.8,101.76 69.056,106.88 Z m -27.776,-61.696003 1.536,-24.064 h 62.592 l 1.536,24.064 h -2.048 l -7.808,-22.528 4.864,1.536 H 36.16 l 4.864,-1.536 -7.808,22.528 z"
        id="text1"
        style="font-size:128px;font-family:'Source Serif 4';-inkscape-font-specification:'Source Serif 4, ';stroke-width:0.1"
        aria-label="T" />
    <path
        style="font-weight:300;font-size:64px;font-family:'Source Serif 4';-inkscape-font-specification:'Source Serif 4 Light';stroke-width:0.1"
        d="m 31.839982,95.72299 -14.144,-43.84 h 2.944 l 12.672,40.064 h -0.64 l 0.192,-0.448 12.608,-39.616 h 1.408 l -14.144,43.84 z m -18.624,-43.072 v -0.768 h 13.696 v 0.768 l -6.592,0.576 h -1.472 z m 25.856,0 v -0.768 h 12.224 v 0.768 l -5.184,0.512 h -0.896 z m 40.384035,42.368 v -0.768 l 6.464,-0.512 h 1.28 l 6.464,0.512 v 0.768 z m 5.568,0 q 0.128,-2.752 0.128,-6.208 0.064,-3.456 0.064,-7.168 0,-3.712 0,-7.168 v -2.496 q 0,-3.328 0,-6.976 0,-3.648 -0.064,-7.04 0,-3.392 -0.128,-6.08 h 3.072 q -0.064,2.688 -0.128,6.08 0,3.392 0,7.04 0,3.648 0,6.976 v 2.496 q 0,3.456 0,7.168 0,3.712 0,7.168 0.064,3.456 0.128,6.208 z m 25.984003,0.256 q -2.432,0 -3.456,-0.512 -1.024,-0.576 -1.856,-2.368 l -5.376,-11.136 q -1.088003,-2.304 -2.304003,-3.712 -1.216,-1.472 -2.944,-2.048 -1.664,-0.64 -4.224,-0.64 h -4.416 v -1.152 h 7.872 q 3.2,0 5.504,-1.408 2.368003,-1.472 3.648003,-3.904 1.28,-2.496 1.28,-5.44 0,-4.48 -2.56,-7.168 -2.560003,-2.752 -8.000003,-2.752 h -7.744 v -1.152 h 7.936 q 6.272003,0 9.728003,2.88 3.52,2.816 3.52,8.256 0,3.2 -1.6,5.824 -1.536,2.624 -4.608,4.224 -3.008003,1.536 -7.360003,1.536 l -1.728,-0.384 q 2.112,0 3.648,0.384 1.6,0.32 2.88,1.152 1.280003,0.832 2.304003,2.176 1.024,1.344 1.984,3.264 l 6.592,13.056 -1.536,-0.512 6.592,0.512 v 0.768 q -0.384,0.064 -0.96,0.128 -0.576,0.064 -1.28,0.064 -0.704,0.064 -1.536,0.064 z m -31.552003,-42.624 v -0.768 h 7.424 v 1.344 h -0.96 z"
        id="text1-8"
        aria-label="V  R" />
    <style>
        path { fill: #000; }
        @media (prefers-color-scheme: dark) {
        path { fill: #FFF; }
        }
    </style>
</svg>